Coordinates
version=1
nRows=9
nColumns=24
inDegrees=yes

Units are S.I. units (second, meters, Newtons, ...)
Angles are in degrees.

endheader
time	pelvis_tilt	pelvis_list	pelvis_rotation	pelvis_tx	pelvis_ty	pelvis_tz	hip_flexion_r	hip_adduction_r	hip_rotation_r	knee_angle_r	ankle_angle_r	subtalar_angle_r	mtp_angle_r	hip_flexion_l	hip_adduction_l	hip_rotation_l	knee_angle_l	ankle_angle_l	subtalar_angle_l	mtp_angle_l	lumbar_extension	lumbar_bending	lumbar_rotation
      3.16000000	     -2.80017386	     -4.60684256	     -3.59086181	     -1.14386172	      0.93797961	      0.24203422	     12.63065609	     12.46377992	      5.35018460	    -21.81581722	     15.52122773	    -14.51906902	      0.00000000	     25.46163952	     -6.25447971	     -3.24708712	    -69.66747271	     12.26287641	    -12.07559762	      0.00000000	    -11.14373254	      4.91499352	     -3.99092236
      3.16500000	     -2.74809561	     -4.39506542	     -3.77294561	     -1.13695966	      0.93891717	      0.24277239	     11.84192218	     12.26412697	      5.60980213	    -21.35203560	     15.70445817	    -14.46910312	      0.00000000	     25.98882869	     -6.04332564	     -3.37734909	    -68.87103414	     12.78210465	    -11.56636880	      0.00000000	    -11.18370948	      4.61414450	     -3.73141385
      3.17000000	     -2.62182143	     -4.19592423	     -4.00003855	     -1.13007712	      0.93989948	      0.24357866	     10.96822377	     12.08307602	      5.96987396	    -20.88592151	     15.85372629	    -14.45593999	      0.00000000	     26.38745526	     -5.85596359	     -3.55382282	    -67.96981876	     13.24965115	    -11.17605680	      0.00000000	    -11.32375574	      4.30783727	     -3.36250538
      3.17500000	     -2.56652083	     -3.98679113	     -4.18760998	     -1.12318603	      0.94070756	      0.24432104	     10.19506692	     11.87698315	      6.22761216	    -20.44096280	     15.99642305	    -14.44235512	      0.00000000	     26.84437827	     -5.64312878	     -3.70167054	    -66.98647761	     13.66869303	    -10.84887232	      0.00000000	    -11.36350140	      4.00863933	     -3.12739949
      3.18000000	     -2.52626330	     -3.78460963	     -4.38152725	     -1.11629716	      0.94139642	      0.24503703	      9.45301048	     11.67212298	      6.46239713	    -20.01577978	     16.16038348	    -14.42694843	      0.00000000	     27.29082346	     -5.43899426	     -3.86075188	    -65.92861518	     14.03590077	    -10.59322292	      0.00000000	    -11.38245727	      3.73038215	     -2.88454952
      3.18500000	     -2.51490397	     -3.59175598	     -4.55414041	     -1.10940829	      0.94192739	      0.24580602	      8.75805132	     11.47856682	      6.65155930	    -19.60916399	     16.34291273	    -14.42112494	      0.00000000	     27.74707564	     -5.24278869	     -3.99820464	    -64.80169124	     14.37769505	    -10.39285407	      0.00000000	    -11.36140940	      3.44076011	     -2.67486004
      3.19000000	     -2.43545921	     -3.40661642	     -4.80117645	     -1.10254602	      0.94251523	      0.24657321	      7.99291054	     11.28788804	      6.94387767	    -19.21811832	     16.49709438	    -14.39837190	      0.00000000	     28.07453442	     -5.06805002	     -4.20213665	    -63.56976142	     14.64764981	    -10.31391274	      0.00000000	    -11.43654760	      3.16508564	     -2.33265502
      3.19500000	     -2.40609292	     -3.23555679	     -5.00498868	     -1.09566405	      0.94291447	      0.24730615	      7.30148158	     11.10779282	      7.14784570	    -18.84819343	     16.65441789	    -14.40703875	      0.00000000	     28.43825178	     -4.89664738	     -4.36768074	    -62.27466123	     14.91141512	    -10.25541629	      0.00000000	    -11.44019190	      2.91691188	     -2.10175301
      3.20000000	     -2.37963597	     -3.07882126	     -5.21763681	     -1.08879216	      0.94321387	      0.24802556	      6.63094982	     10.94080211	      7.35147062	    -18.50991457	     16.81740721	    -14.42035992	      0.00000000	     28.77175566	     -4.73536618	     -4.52623159	    -60.90299447	     15.14350533	    -10.25759965	      0.00000000	    -11.44357565	      2.68387555	     -1.85062011
